<svg xmlns="http://www.w3.org/2000/svg" viewBox="0 0 520 780" role="img" aria-labelledby="t d">
  <title id="t">Two Of Sparkles</title>
  <desc id="d">Whimsical pastel tarot artwork inspired by hand-drawn style, original composition.</desc>
  <defs>
    <linearGradient id="bg" x1="0" y1="0" x2="1" y2="1">
      <stop offset="0%" stop-color="#fff7ea"/>
      <stop offset="50%" stop-color="#ffd7a8"/>
      <stop offset="100%" stop-color="#f9c8dd"/>
    </linearGradient>
    <filter id="soft" x="-20%" y="-20%" width="140%" height="140%"><feGaussianBlur stdDeviation="2.8"/></filter>
  </defs>

  <rect width="520" height="780" fill="url(#bg)"/>
  <rect x="22" y="22" width="476" height="736" rx="34" fill="none" stroke="#fff9ee" stroke-width="6" opacity=".86"/>

  <path d="M52 78 C180 62,336 96,468 70" stroke="#fff" stroke-opacity=".5" stroke-width="3" fill="none"/>
  <path d="M52 161 C180 175,336 147,468 171" stroke="#fff" stroke-opacity=".42" stroke-width="2.7" fill="none"/>

  <circle cx="264" cy="370" r="132" fill="#ffffff" opacity=".22" filter="url(#soft)"/>
  
  <path d="M260 236 L286 302 L356 302 L300 345 L322 414 L260 372 L198 414 L220 345 L164 302 L234 302 Z" fill="#ffc27a"/>
  <path d="M260 266 L278 312 L327 312 L288 341 L304 390 L260 360 L216 390 L232 341 L193 312 L242 312 Z" fill="#fff7ec"/>
  <circle cx="326" cy="248" r="11" fill="#f9c8dd"/>
        

  <g><circle cx="216" cy="231" r="2.26" fill="#fff" opacity=".74"/>
    <circle cx="118" cy="182" r="3.58" fill="#fff" opacity=".74"/>
    <circle cx="309" cy="409" r="4.33" fill="#fff" opacity=".74"/>
    <circle cx="276" cy="211" r="2.56" fill="#fff" opacity=".74"/>
    <circle cx="337" cy="189" r="4.52" fill="#fff" opacity=".74"/>
    <circle cx="268" cy="526" r="2.05" fill="#fff" opacity=".74"/>
    <circle cx="382" cy="549" r="4.12" fill="#fff" opacity=".74"/>
    <circle cx="130" cy="172" r="2.54" fill="#fff" opacity=".74"/>
    <circle cx="290" cy="469" r="4.03" fill="#fff" opacity=".74"/>
    <circle cx="135" cy="292" r="2.95" fill="#fff" opacity=".74"/></g>

  <rect x="80" y="618" width="360" height="86" rx="24" fill="#fff9ef" opacity=".8"/>
  <text x="260" y="653" text-anchor="middle" font-family="'Cormorant Garamond', Georgia, serif" font-size="22" fill="#6f5686">Two Of Sparkles</text>
  <text x="260" y="680" text-anchor="middle" font-family="'Nunito', sans-serif" font-size="16" fill="#8b74a2">Sparkles</text>
</svg>
