<svg xmlns="http://www.w3.org/2000/svg" viewBox="0 0 520 780" role="img" aria-labelledby="t d">
  <title id="t">The Butterfly Door</title>
  <desc id="d">Detailed whimsical original tarot artwork for The Butterfly Door.</desc>
  <defs>
    <linearGradient id="bg" x1="0" y1="0" x2="1" y2="1">
      <stop offset="0%" stop-color="#fff8ee"/>
      <stop offset="42%" stop-color="#ffdcee"/>
      <stop offset="70%" stop-color="#d9ccff"/>
      <stop offset="100%" stop-color="#ffe2ac"/>
    </linearGradient>
    <radialGradient id="orb" cx="50%" cy="45%" r="60%">
      <stop offset="0%" stop-color="#ffffff" stop-opacity="0.94"/>
      <stop offset="100%" stop-color="#bfe7ff" stop-opacity="0.16"/>
    </radialGradient>
    <filter id="soft" x="-20%" y="-20%" width="140%" height="140%"><feGaussianBlur stdDeviation="2.5"/></filter>
  </defs>

  <rect width="520" height="780" fill="url(#bg)"/>
  <rect x="20" y="20" width="480" height="740" rx="34" fill="none" stroke="#fff9ef" stroke-width="6" opacity=".9"/>

  <path d="M45 80 C170 60,340 102,475 74" stroke="#fff" stroke-opacity=".50" stroke-width="3.2" fill="none"/>
  <path d="M45 143 C175 157,337 127,475 155" stroke="#fff" stroke-opacity=".42" stroke-width="2.6" fill="none"/>

  <circle cx="267" cy="312" r="96" fill="url(#orb)" filter="url(#soft)"/>

  <ellipse cx="260" cy="395" rx="150" ry="110" fill="#f2e8ff"/><path d="M120 410 C190 300,330 300,400 410 C350 495,170 495,120 410 Z" fill="#fff6de"/><path d="M160 430 Q260 330 360 430" stroke="#fff" stroke-width="5" fill="none"/>

  <path d="M72 560 C150 518,220 540,260 556 C305 575,370 578,448 538 L448 650 L72 650 Z" fill="#ffffff" fill-opacity=".20"/>
  <path d="M 133 470 C 197 438, 323 502, 387 470 C 323 438, 197 502, 133 470" stroke="#bfe7ff" stroke-opacity=".52" stroke-width="4" fill="none"/>
    <path d="M 165 488 C 213 444, 307 532, 355 488 C 307 444, 213 532, 165 488" stroke="#d9ccff" stroke-opacity=".52" stroke-width="4" fill="none"/>
    <path d="M 137 506 C 199 464, 321 548, 383 506 C 321 464, 199 548, 137 506" stroke="#d9ccff" stroke-opacity=".52" stroke-width="4" fill="none"/>

  <g>
    <circle cx="320" cy="319" r="3.65" fill="#fff" opacity="0.88"/>
    <circle cx="64" cy="563" r="3.40" fill="#fff" opacity="0.65"/>
    <circle cx="369" cy="91" r="1.82" fill="#fff" opacity="0.38"/>
    <circle cx="67" cy="248" r="1.99" fill="#fff" opacity="0.52"/>
    <circle cx="144" cy="515" r="4.66" fill="#fff" opacity="0.37"/>
    <circle cx="383" cy="189" r="1.86" fill="#fff" opacity="0.88"/>
    <circle cx="293" cy="459" r="2.83" fill="#fff" opacity="0.81"/>
    <circle cx="215" cy="519" r="1.90" fill="#fff" opacity="0.88"/>
    <circle cx="258" cy="136" r="3.37" fill="#fff" opacity="0.73"/>
    <circle cx="104" cy="539" r="1.43" fill="#fff" opacity="0.54"/>
    <circle cx="100" cy="366" r="4.56" fill="#fff" opacity="0.82"/>
    <circle cx="219" cy="379" r="2.00" fill="#fff" opacity="0.38"/>
    <circle cx="458" cy="414" r="4.54" fill="#fff" opacity="0.72"/>
    <circle cx="286" cy="197" r="1.62" fill="#fff" opacity="0.72"/>
    <circle cx="417" cy="505" r="2.09" fill="#fff" opacity="0.79"/>
    <circle cx="211" cy="376" r="1.81" fill="#fff" opacity="0.90"/>
    <circle cx="425" cy="473" r="1.48" fill="#fff" opacity="0.51"/>
    <circle cx="207" cy="578" r="1.61" fill="#fff" opacity="0.80"/>
    <circle cx="197" cy="446" r="1.92" fill="#fff" opacity="0.88"/>
    <circle cx="310" cy="398" r="4.54" fill="#fff" opacity="0.82"/>
    <circle cx="454" cy="202" r="4.33" fill="#fff" opacity="0.88"/>
    <circle cx="441" cy="573" r="2.50" fill="#fff" opacity="0.49"/>
    <circle cx="319" cy="437" r="2.98" fill="#fff" opacity="0.89"/>
    <circle cx="215" cy="471" r="1.58" fill="#fff" opacity="0.85"/>
    <circle cx="102" cy="485" r="4.42" fill="#fff" opacity="0.76"/>
    <circle cx="249" cy="310" r="2.22" fill="#fff" opacity="0.47"/>
  </g>

  <rect x="58" y="620" width="404" height="95" rx="24" fill="#fff8ef" opacity=".82"/>
  <text x="260" y="668" text-anchor="middle" font-family="'Cormorant Garamond', Georgia, serif" font-size="33" fill="#6d5585">The Butterfly Door</text>
  <text x="260" y="692" text-anchor="middle" font-family="'Nunito', sans-serif" font-size="14" fill="#8a74a0">ornate door with butterfly key</text>
</svg>
