<svg xmlns="http://www.w3.org/2000/svg" viewBox="0 0 520 780" role="img" aria-labelledby="t d">
  <title id="t">The Floating Ribbon</title>
  <desc id="d">Whimsical pastel tarot art for The Floating Ribbon.</desc>
  <defs>
    <linearGradient id="bg" x1="0" y1="0" x2="1" y2="1">
      <stop offset="0%" stop-color="#fff7ea"/>
      <stop offset="45%" stop-color="#ffd7ee"/>
      <stop offset="100%" stop-color="#bfe7ff"/>
    </linearGradient>
    <radialGradient id="orb" cx="50%" cy="45%" r="50%">
      <stop offset="0%" stop-color="#ffffff" stop-opacity="0.98"/>
      <stop offset="100%" stop-color="#d8c8ff" stop-opacity="0.15"/>
    </radialGradient>
    <filter id="soft" x="-20%" y="-20%" width="140%" height="140%">
      <feGaussianBlur stdDeviation="3"/>
    </filter>
  </defs>

  <rect width="520" height="780" fill="url(#bg)"/>
  <rect x="24" y="24" width="472" height="732" rx="34" fill="none" stroke="#fff8ea" stroke-width="6" opacity=".82"/>

  <path d="M50 66 C170 42,350 88,470 58" stroke="#fff" stroke-opacity=".52" stroke-width="3" fill="none"/>
  <path d="M50 132 C170 150,350 114,470 146" stroke="#fff" stroke-opacity=".4" stroke-width="2.5" fill="none"/>

  <circle cx="261" cy="204" r="82" fill="url(#orb)" filter="url(#soft)"/>
  
  <g opacity="0.95">
    <ellipse cx="260" cy="350" rx="150" ry="95" fill="#ffd7ee"/>
    <ellipse cx="260" cy="342" rx="110" ry="70" fill="#fff7ff"/>
    <circle cx="220" cy="332" r="14" fill="#f8dfa5"/>
    <circle cx="260" cy="322" r="18" fill="#f8dfa5"/>
    <circle cx="302" cy="334" r="12" fill="#f8dfa5"/>
    <path d="M210 382 Q260 432 310 382" stroke="#b485c5" stroke-width="6" fill="none" stroke-linecap="round"/>
  </g>

  <g>
    <circle cx="132" cy="236" r="3.44" fill="#fff" opacity=".72"/><circle cx="169" cy="160" r="3.34" fill="#fff" opacity=".72"/><circle cx="342" cy="446" r="2.72" fill="#fff" opacity=".72"/><circle cx="134" cy="488" r="2.86" fill="#fff" opacity=".72"/><circle cx="190" cy="210" r="4.50" fill="#fff" opacity=".72"/><circle cx="326" cy="135" r="4.45" fill="#fff" opacity=".72"/><circle cx="295" cy="238" r="4.50" fill="#fff" opacity=".72"/><circle cx="151" cy="218" r="2.53" fill="#fff" opacity=".72"/>
  </g>

  <rect x="64" y="620" width="392" height="92" rx="24" fill="#fff7ea" opacity=".78"/>
  <text x="260" y="678" text-anchor="middle" font-family="'Cormorant Garamond', Georgia, serif" font-size="34" fill="#6f5686">The Floating Ribbon</text>
</svg>
