<svg xmlns="http://www.w3.org/2000/svg" viewBox="0 0 520 780" role="img" aria-labelledby="t d">
  <title id="t">The Golden Wheel</title>
  <desc id="d">Whimsical pastel tarot art for The Golden Wheel.</desc>
  <defs>
    <linearGradient id="bg" x1="0" y1="0" x2="1" y2="1">
      <stop offset="0%" stop-color="#fff7ea"/>
      <stop offset="45%" stop-color="#ffe1f2"/>
      <stop offset="100%" stop-color="#d5f4e6"/>
    </linearGradient>
    <radialGradient id="orb" cx="50%" cy="45%" r="50%">
      <stop offset="0%" stop-color="#ffffff" stop-opacity="0.98"/>
      <stop offset="100%" stop-color="#cfe9ff" stop-opacity="0.15"/>
    </radialGradient>
    <filter id="soft" x="-20%" y="-20%" width="140%" height="140%">
      <feGaussianBlur stdDeviation="3"/>
    </filter>
  </defs>

  <rect width="520" height="780" fill="url(#bg)"/>
  <rect x="24" y="24" width="472" height="732" rx="34" fill="none" stroke="#fff8ea" stroke-width="6" opacity=".82"/>

  <path d="M50 76 C170 52,350 98,470 68" stroke="#fff" stroke-opacity=".52" stroke-width="3" fill="none"/>
  <path d="M50 136 C170 154,350 118,470 150" stroke="#fff" stroke-opacity=".4" stroke-width="2.5" fill="none"/>

  <circle cx="279" cy="209" r="82" fill="url(#orb)" filter="url(#soft)"/>
  
  <g opacity="0.95">
    <circle cx="260" cy="320" r="102" fill="#cfe9ff"/>
    <circle cx="260" cy="320" r="74" fill="#fff8ff"/>
    <path d="M260 238 L277 287 L330 287 L287 318 L304 368 L260 338 L216 368 L233 318 L190 287 L243 287 Z" fill="#ffe9b8"/>
    <circle cx="200" cy="250" r="9" fill="#fff"/>
    <circle cx="330" cy="265" r="7" fill="#fff"/>
    <circle cx="315" cy="380" r="8" fill="#fff"/>
  </g>

  <g>
    <circle cx="184" cy="191" r="3.35" fill="#fff" opacity=".72"/><circle cx="138" cy="194" r="4.04" fill="#fff" opacity=".72"/><circle cx="132" cy="398" r="3.72" fill="#fff" opacity=".72"/><circle cx="371" cy="375" r="3.05" fill="#fff" opacity=".72"/><circle cx="266" cy="464" r="2.52" fill="#fff" opacity=".72"/><circle cx="278" cy="548" r="4.38" fill="#fff" opacity=".72"/><circle cx="183" cy="393" r="4.26" fill="#fff" opacity=".72"/><circle cx="140" cy="345" r="3.43" fill="#fff" opacity=".72"/>
  </g>

  <rect x="64" y="620" width="392" height="92" rx="24" fill="#fff7ea" opacity=".78"/>
  <text x="260" y="678" text-anchor="middle" font-family="'Cormorant Garamond', Georgia, serif" font-size="34" fill="#6f5686">The Golden Wheel</text>
</svg>
