<svg xmlns="http://www.w3.org/2000/svg" viewBox="0 0 600 900" role="img" aria-label="The First Sparkle tarot card art">
  <defs>
    <linearGradient id="bg" x1="0" y1="0" x2="1" y2="1">
      <stop offset="0%" stop-color="#fff4d6"/>
      <stop offset="50%" stop-color="#f8c8d8"/>
      <stop offset="100%" stop-color="#c8e9ff"/>
    </linearGradient>
    <radialGradient id="halo" cx="50%" cy="28%" r="45%">
      <stop offset="0%" stop-color="#ffffff" stop-opacity="0.95"/>
      <stop offset="100%" stop-color="#ffffff" stop-opacity="0"/>
    </radialGradient>
  </defs>
  <rect width="600" height="900" fill="url(#bg)"/>
  <rect x="28" y="28" width="544" height="844" rx="30" fill="none" stroke="#e9c46a" stroke-width="8"/>
  <circle cx="300" cy="250" r="180" fill="url(#halo)"/>
  <path d="M300 170 L323 235 L392 235 L336 278 L356 346 L300 304 L244 346 L264 278 L208 235 L277 235 Z" fill="#fffdf8" stroke="#e9c46a" stroke-width="5"/>
  <g fill="#ffffff" opacity="0.9">
    <circle cx="170" cy="180" r="6"/><circle cx="430" cy="200" r="5"/><circle cx="470" cy="320" r="5"/>
    <circle cx="120" cy="350" r="5"/><circle cx="220" cy="410" r="4"/><circle cx="380" cy="410" r="4"/>
  </g>
  <path d="M110 700 C220 620, 380 620, 490 700" fill="none" stroke="#bfcbff" stroke-width="16" stroke-linecap="round"/>
  <path d="M130 740 C235 670, 365 670, 470 740" fill="none" stroke="#cdefd8" stroke-width="12" stroke-linecap="round"/>
  <rect x="150" y="770" width="300" height="70" rx="28" fill="#fffdf8" opacity="0.85"/>
  <text x="300" y="815" text-anchor="middle" font-family="Georgia, serif" font-size="38" fill="#5a496e">THE FIRST SPARKLE</text>
</svg>