<svg xmlns="http://www.w3.org/2000/svg" viewBox="0 0 520 780" role="img" aria-labelledby="t d">
  <title id="t">Ace of Feathers</title>
  <desc id="d">Detailed whimsical original tarot artwork for Ace of Feathers.</desc>
  <defs>
    <linearGradient id="bg" x1="0" y1="0" x2="1" y2="1">
      <stop offset="0%" stop-color="#fff8f0"/>
      <stop offset="42%" stop-color="#e5eeff"/>
      <stop offset="70%" stop-color="#bfd3ff"/>
      <stop offset="100%" stop-color="#e1d6ff"/>
    </linearGradient>
    <radialGradient id="orb" cx="50%" cy="45%" r="60%">
      <stop offset="0%" stop-color="#ffffff" stop-opacity="0.94"/>
      <stop offset="100%" stop-color="#9ab6ff" stop-opacity="0.16"/>
    </radialGradient>
    <filter id="soft" x="-20%" y="-20%" width="140%" height="140%"><feGaussianBlur stdDeviation="2.5"/></filter>
  </defs>

  <rect width="520" height="780" fill="url(#bg)"/>
  <rect x="20" y="20" width="480" height="740" rx="34" fill="none" stroke="#fff9ef" stroke-width="6" opacity=".9"/>

  <path d="M45 83 C170 63,340 105,475 77" stroke="#fff" stroke-opacity=".50" stroke-width="3.2" fill="none"/>
  <path d="M45 155 C175 169,337 139,475 167" stroke="#fff" stroke-opacity=".42" stroke-width="2.6" fill="none"/>

  <circle cx="234" cy="259" r="96" fill="url(#orb)" filter="url(#soft)"/>

  <path d="M 127 293 C 187 251, 253 323, 239 385 C 213 357, 181 351, 153 357 C 171 333, 179 311, 127 293 Z" fill="#eaf0ff" stroke="#fff" stroke-width="2" opacity=".83"/>

  <path d="M72 560 C150 518,220 540,260 556 C305 575,370 578,448 538 L448 650 L72 650 Z" fill="#ffffff" fill-opacity=".20"/>
  <path d="M 151 470 C 206 430, 314 510, 369 470 C 314 430, 206 510, 151 470" stroke="#bfd3ff" stroke-opacity=".52" stroke-width="4" fill="none"/>
    <path d="M 149 488 C 205 445, 315 531, 371 488 C 315 445, 205 531, 149 488" stroke="#e1d6ff" stroke-opacity=".52" stroke-width="4" fill="none"/>
    <path d="M 163 506 C 212 460, 308 552, 357 506 C 308 460, 212 552, 163 506" stroke="#9ab6ff" stroke-opacity=".52" stroke-width="4" fill="none"/>

  <g>
    <circle cx="172" cy="510" r="2.68" fill="#fff" opacity="0.64"/>
    <circle cx="242" cy="137" r="2.93" fill="#fff" opacity="0.46"/>
    <circle cx="89" cy="192" r="3.35" fill="#fff" opacity="0.83"/>
    <circle cx="276" cy="436" r="1.69" fill="#fff" opacity="0.43"/>
    <circle cx="70" cy="390" r="1.82" fill="#fff" opacity="0.45"/>
    <circle cx="327" cy="511" r="2.93" fill="#fff" opacity="0.64"/>
    <circle cx="323" cy="149" r="1.87" fill="#fff" opacity="0.60"/>
    <circle cx="299" cy="598" r="3.15" fill="#fff" opacity="0.70"/>
    <circle cx="98" cy="363" r="3.77" fill="#fff" opacity="0.73"/>
    <circle cx="282" cy="156" r="1.92" fill="#fff" opacity="0.41"/>
    <circle cx="417" cy="140" r="2.71" fill="#fff" opacity="0.43"/>
    <circle cx="432" cy="446" r="3.82" fill="#fff" opacity="0.86"/>
    <circle cx="404" cy="260" r="1.52" fill="#fff" opacity="0.74"/>
    <circle cx="189" cy="250" r="4.47" fill="#fff" opacity="0.66"/>
    <circle cx="160" cy="538" r="2.32" fill="#fff" opacity="0.88"/>
    <circle cx="441" cy="365" r="2.15" fill="#fff" opacity="0.63"/>
    <circle cx="113" cy="199" r="2.40" fill="#fff" opacity="0.84"/>
    <circle cx="127" cy="478" r="1.85" fill="#fff" opacity="0.35"/>
    <circle cx="262" cy="328" r="4.64" fill="#fff" opacity="0.64"/>
    <circle cx="448" cy="238" r="3.53" fill="#fff" opacity="0.58"/>
    <circle cx="77" cy="132" r="2.55" fill="#fff" opacity="0.75"/>
    <circle cx="378" cy="579" r="4.55" fill="#fff" opacity="0.67"/>
    <circle cx="427" cy="325" r="2.68" fill="#fff" opacity="0.40"/>
    <circle cx="190" cy="125" r="2.82" fill="#fff" opacity="0.46"/>
    <circle cx="145" cy="348" r="3.43" fill="#fff" opacity="0.40"/>
    <circle cx="186" cy="235" r="1.46" fill="#fff" opacity="0.88"/>
  </g>

  <rect x="58" y="620" width="404" height="95" rx="24" fill="#fff8ef" opacity=".82"/>
  <text x="260" y="668" text-anchor="middle" font-family="'Cormorant Garamond', Georgia, serif" font-size="33" fill="#6d5585">Ace of Feathers</text>
  <text x="260" y="692" text-anchor="middle" font-family="'Nunito', sans-serif" font-size="14" fill="#8a74a0">feathers • ace</text>
</svg>
