<svg xmlns="http://www.w3.org/2000/svg" viewBox="0 0 520 780" role="img" aria-labelledby="t d">
  <title id="t">Five Of Feathers</title>
  <desc id="d">Whimsical pastel tarot artwork inspired by hand-drawn style, original composition.</desc>
  <defs>
    <linearGradient id="bg" x1="0" y1="0" x2="1" y2="1">
      <stop offset="0%" stop-color="#fff8f0"/>
      <stop offset="50%" stop-color="#e0efff"/>
      <stop offset="100%" stop-color="#ead6ff"/>
    </linearGradient>
    <filter id="soft" x="-20%" y="-20%" width="140%" height="140%"><feGaussianBlur stdDeviation="2.8"/></filter>
  </defs>

  <rect width="520" height="780" fill="url(#bg)"/>
  <rect x="22" y="22" width="476" height="736" rx="34" fill="none" stroke="#fff9ee" stroke-width="6" opacity=".86"/>

  <path d="M52 75 C180 59,336 93,468 67" stroke="#fff" stroke-opacity=".5" stroke-width="3" fill="none"/>
  <path d="M52 157 C180 171,336 143,468 167" stroke="#fff" stroke-opacity=".42" stroke-width="2.7" fill="none"/>

  <circle cx="264" cy="370" r="132" fill="#ffffff" opacity=".22" filter="url(#soft)"/>
  
  <ellipse cx="260" cy="365" rx="142" ry="92" fill="#e0efff"/>
  <path d="M254 286 C206 302,172 350,176 398 C180 444,214 478,258 488 C238 452,234 412,238 386 C242 344,268 318,302 298 C286 294,272 292,254 286 Z" fill="#c9dcff"/>
  <path d="M266 286 C314 302,348 350,344 398 C340 444,306 478,262 488 C282 452,286 412,282 386 C278 344,252 318,218 298 C234 294,248 292,266 286 Z" fill="#a9c1ff"/>
  <path d="M232 356 Q260 344 288 356" stroke="#ffffff" stroke-width="5" fill="none" stroke-linecap="round"/>
        

  <g><circle cx="334" cy="156" r="3.53" fill="#fff" opacity=".74"/>
    <circle cx="214" cy="332" r="3.19" fill="#fff" opacity=".74"/>
    <circle cx="293" cy="166" r="3.65" fill="#fff" opacity=".74"/>
    <circle cx="332" cy="361" r="3.78" fill="#fff" opacity=".74"/>
    <circle cx="304" cy="380" r="2.02" fill="#fff" opacity=".74"/>
    <circle cx="249" cy="263" r="2.21" fill="#fff" opacity=".74"/>
    <circle cx="198" cy="204" r="2.23" fill="#fff" opacity=".74"/>
    <circle cx="329" cy="401" r="4.70" fill="#fff" opacity=".74"/>
    <circle cx="137" cy="210" r="4.31" fill="#fff" opacity=".74"/>
    <circle cx="108" cy="159" r="2.46" fill="#fff" opacity=".74"/></g>

  <rect x="80" y="618" width="360" height="86" rx="24" fill="#fff9ef" opacity=".8"/>
  <text x="260" y="653" text-anchor="middle" font-family="'Cormorant Garamond', Georgia, serif" font-size="22" fill="#6f5686">Five Of Feathers</text>
  <text x="260" y="680" text-anchor="middle" font-family="'Nunito', sans-serif" font-size="16" fill="#8b74a2">Feathers</text>
</svg>
