<svg xmlns="http://www.w3.org/2000/svg" viewBox="0 0 520 780" role="img" aria-labelledby="t d">
  <title id="t">Four of Feathers</title>
  <desc id="d">Detailed whimsical original tarot artwork for Four of Feathers.</desc>
  <defs>
    <linearGradient id="bg" x1="0" y1="0" x2="1" y2="1">
      <stop offset="0%" stop-color="#fff8f0"/>
      <stop offset="42%" stop-color="#e5eeff"/>
      <stop offset="70%" stop-color="#bfd3ff"/>
      <stop offset="100%" stop-color="#e1d6ff"/>
    </linearGradient>
    <radialGradient id="orb" cx="50%" cy="45%" r="60%">
      <stop offset="0%" stop-color="#ffffff" stop-opacity="0.94"/>
      <stop offset="100%" stop-color="#9ab6ff" stop-opacity="0.16"/>
    </radialGradient>
    <filter id="soft" x="-20%" y="-20%" width="140%" height="140%"><feGaussianBlur stdDeviation="2.5"/></filter>
  </defs>

  <rect width="520" height="780" fill="url(#bg)"/>
  <rect x="20" y="20" width="480" height="740" rx="34" fill="none" stroke="#fff9ef" stroke-width="6" opacity=".9"/>

  <path d="M45 82 C170 62,340 104,475 76" stroke="#fff" stroke-opacity=".50" stroke-width="3.2" fill="none"/>
  <path d="M45 157 C175 171,337 141,475 169" stroke="#fff" stroke-opacity=".42" stroke-width="2.6" fill="none"/>

  <circle cx="271" cy="250" r="96" fill="url(#orb)" filter="url(#soft)"/>

  <path d="M 124 255 C 184 213, 250 285, 236 347 C 210 319, 178 313, 150 319 C 168 295, 176 273, 124 255 Z" fill="#eaf0ff" stroke="#fff" stroke-width="2" opacity=".83"/>
    <path d="M 156 319 C 216 277, 282 349, 268 411 C 242 383, 210 377, 182 383 C 200 359, 208 337, 156 319 Z" fill="#eaf0ff" stroke="#fff" stroke-width="2" opacity=".83"/>
    <path d="M 202 325 C 262 283, 328 355, 314 417 C 288 389, 256 383, 228 389 C 246 365, 254 343, 202 325 Z" fill="#eaf0ff" stroke="#fff" stroke-width="2" opacity=".83"/>
    <path d="M 242 312 C 302 270, 368 342, 354 404 C 328 376, 296 370, 268 376 C 286 352, 294 330, 242 312 Z" fill="#eaf0ff" stroke="#fff" stroke-width="2" opacity=".83"/>

  <path d="M72 560 C150 518,220 540,260 556 C305 575,370 578,448 538 L448 650 L72 650 Z" fill="#ffffff" fill-opacity=".20"/>
  <path d="M 122 470 C 191 426, 329 514, 398 470 C 329 426, 191 514, 122 470" stroke="#9ab6ff" stroke-opacity=".52" stroke-width="4" fill="none"/>
    <path d="M 154 488 C 207 446, 313 530, 366 488 C 313 446, 207 530, 154 488" stroke="#9ab6ff" stroke-opacity=".52" stroke-width="4" fill="none"/>
    <path d="M 155 506 C 208 469, 312 543, 365 506 C 312 469, 208 543, 155 506" stroke="#9ab6ff" stroke-opacity=".52" stroke-width="4" fill="none"/>

  <g>
    <circle cx="228" cy="517" r="3.39" fill="#fff" opacity="0.38"/>
    <circle cx="143" cy="394" r="3.36" fill="#fff" opacity="0.76"/>
    <circle cx="362" cy="438" r="4.18" fill="#fff" opacity="0.40"/>
    <circle cx="152" cy="285" r="1.59" fill="#fff" opacity="0.41"/>
    <circle cx="341" cy="455" r="1.86" fill="#fff" opacity="0.56"/>
    <circle cx="426" cy="252" r="3.90" fill="#fff" opacity="0.42"/>
    <circle cx="213" cy="574" r="2.52" fill="#fff" opacity="0.55"/>
    <circle cx="450" cy="531" r="2.32" fill="#fff" opacity="0.45"/>
    <circle cx="254" cy="231" r="3.96" fill="#fff" opacity="0.90"/>
    <circle cx="72" cy="534" r="2.40" fill="#fff" opacity="0.65"/>
    <circle cx="178" cy="129" r="1.55" fill="#fff" opacity="0.90"/>
    <circle cx="437" cy="450" r="3.59" fill="#fff" opacity="0.89"/>
    <circle cx="203" cy="314" r="2.31" fill="#fff" opacity="0.68"/>
    <circle cx="370" cy="133" r="2.45" fill="#fff" opacity="0.53"/>
    <circle cx="83" cy="135" r="3.34" fill="#fff" opacity="0.46"/>
    <circle cx="126" cy="307" r="4.16" fill="#fff" opacity="0.44"/>
    <circle cx="72" cy="255" r="1.55" fill="#fff" opacity="0.48"/>
    <circle cx="385" cy="570" r="3.52" fill="#fff" opacity="0.63"/>
    <circle cx="109" cy="239" r="3.28" fill="#fff" opacity="0.51"/>
    <circle cx="384" cy="591" r="4.28" fill="#fff" opacity="0.73"/>
    <circle cx="439" cy="337" r="3.49" fill="#fff" opacity="0.56"/>
    <circle cx="191" cy="545" r="1.84" fill="#fff" opacity="0.82"/>
    <circle cx="335" cy="458" r="3.66" fill="#fff" opacity="0.78"/>
    <circle cx="413" cy="212" r="1.47" fill="#fff" opacity="0.43"/>
    <circle cx="360" cy="341" r="4.68" fill="#fff" opacity="0.41"/>
    <circle cx="426" cy="191" r="2.90" fill="#fff" opacity="0.56"/>
  </g>

  <rect x="58" y="620" width="404" height="95" rx="24" fill="#fff8ef" opacity=".82"/>
  <text x="260" y="668" text-anchor="middle" font-family="'Cormorant Garamond', Georgia, serif" font-size="33" fill="#6d5585">Four of Feathers</text>
  <text x="260" y="692" text-anchor="middle" font-family="'Nunito', sans-serif" font-size="14" fill="#8a74a0">feathers • four</text>
</svg>
