<svg xmlns="http://www.w3.org/2000/svg" viewBox="0 0 520 780" role="img" aria-labelledby="t d">
  <title id="t">King of Feathers</title>
  <desc id="d">Detailed whimsical original tarot artwork for King of Feathers.</desc>
  <defs>
    <linearGradient id="bg" x1="0" y1="0" x2="1" y2="1">
      <stop offset="0%" stop-color="#fff8f0"/>
      <stop offset="42%" stop-color="#e5eeff"/>
      <stop offset="70%" stop-color="#bfd3ff"/>
      <stop offset="100%" stop-color="#e1d6ff"/>
    </linearGradient>
    <radialGradient id="orb" cx="50%" cy="45%" r="60%">
      <stop offset="0%" stop-color="#ffffff" stop-opacity="0.94"/>
      <stop offset="100%" stop-color="#9ab6ff" stop-opacity="0.16"/>
    </radialGradient>
    <filter id="soft" x="-20%" y="-20%" width="140%" height="140%"><feGaussianBlur stdDeviation="2.5"/></filter>
  </defs>

  <rect width="520" height="780" fill="url(#bg)"/>
  <rect x="20" y="20" width="480" height="740" rx="34" fill="none" stroke="#fff9ef" stroke-width="6" opacity=".9"/>

  <path d="M45 80 C170 60,340 102,475 74" stroke="#fff" stroke-opacity=".50" stroke-width="3.2" fill="none"/>
  <path d="M45 153 C175 167,337 137,475 165" stroke="#fff" stroke-opacity=".42" stroke-width="2.6" fill="none"/>

  <circle cx="295" cy="290" r="96" fill="url(#orb)" filter="url(#soft)"/>

  <path d="M 126 333 C 186 291, 252 363, 238 425 C 212 397, 180 391, 152 397 C 170 373, 178 351, 126 333 Z" fill="#eaf0ff" stroke="#fff" stroke-width="2" opacity=".83"/>
    <path d="M 165 403 C 225 361, 291 433, 277 495 C 251 467, 219 461, 191 467 C 209 443, 217 421, 165 403 Z" fill="#eaf0ff" stroke="#fff" stroke-width="2" opacity=".83"/>
    <path d="M 207 331 C 267 289, 333 361, 319 423 C 293 395, 261 389, 233 395 C 251 371, 259 349, 207 331 Z" fill="#eaf0ff" stroke="#fff" stroke-width="2" opacity=".83"/>
    <path d="M 239 343 C 299 301, 365 373, 351 435 C 325 407, 293 401, 265 407 C 283 383, 291 361, 239 343 Z" fill="#eaf0ff" stroke="#fff" stroke-width="2" opacity=".83"/>
    <path d="M 282 262 C 342 220, 408 292, 394 354 C 368 326, 336 320, 308 326 C 326 302, 334 280, 282 262 Z" fill="#eaf0ff" stroke="#fff" stroke-width="2" opacity=".83"/>
    <path d="M 329 292 C 389 250, 455 322, 441 384 C 415 356, 383 350, 355 356 C 373 332, 381 310, 329 292 Z" fill="#eaf0ff" stroke="#fff" stroke-width="2" opacity=".83"/>
    <path d="M 374 261 C 434 219, 500 291, 486 353 C 460 325, 428 319, 400 325 C 418 301, 426 279, 374 261 Z" fill="#eaf0ff" stroke="#fff" stroke-width="2" opacity=".83"/>

  <path d="M72 560 C150 518,220 540,260 556 C305 575,370 578,448 538 L448 650 L72 650 Z" fill="#ffffff" fill-opacity=".20"/>
  <path d="M 123 470 C 192 428, 328 512, 397 470 C 328 428, 192 512, 123 470" stroke="#9ab6ff" stroke-opacity=".52" stroke-width="4" fill="none"/>
    <path d="M 143 488 C 202 457, 318 519, 377 488 C 318 457, 202 519, 143 488" stroke="#e1d6ff" stroke-opacity=".52" stroke-width="4" fill="none"/>
    <path d="M 137 506 C 199 480, 321 532, 383 506 C 321 480, 199 532, 137 506" stroke="#bfd3ff" stroke-opacity=".52" stroke-width="4" fill="none"/>

  <g>
    <circle cx="243" cy="283" r="4.42" fill="#fff" opacity="0.55"/>
    <circle cx="78" cy="453" r="3.75" fill="#fff" opacity="0.65"/>
    <circle cx="404" cy="561" r="2.28" fill="#fff" opacity="0.59"/>
    <circle cx="153" cy="328" r="1.68" fill="#fff" opacity="0.54"/>
    <circle cx="221" cy="486" r="4.11" fill="#fff" opacity="0.87"/>
    <circle cx="330" cy="375" r="2.45" fill="#fff" opacity="0.42"/>
    <circle cx="356" cy="268" r="1.96" fill="#fff" opacity="0.69"/>
    <circle cx="89" cy="491" r="3.10" fill="#fff" opacity="0.80"/>
    <circle cx="357" cy="493" r="3.12" fill="#fff" opacity="0.49"/>
    <circle cx="455" cy="500" r="2.88" fill="#fff" opacity="0.71"/>
    <circle cx="84" cy="176" r="3.54" fill="#fff" opacity="0.48"/>
    <circle cx="327" cy="221" r="1.82" fill="#fff" opacity="0.41"/>
    <circle cx="288" cy="166" r="3.95" fill="#fff" opacity="0.42"/>
    <circle cx="409" cy="596" r="1.65" fill="#fff" opacity="0.62"/>
    <circle cx="451" cy="432" r="3.47" fill="#fff" opacity="0.90"/>
    <circle cx="138" cy="198" r="2.26" fill="#fff" opacity="0.54"/>
    <circle cx="452" cy="238" r="4.15" fill="#fff" opacity="0.64"/>
    <circle cx="191" cy="203" r="2.93" fill="#fff" opacity="0.66"/>
    <circle cx="100" cy="134" r="2.73" fill="#fff" opacity="0.51"/>
    <circle cx="64" cy="563" r="4.39" fill="#fff" opacity="0.71"/>
    <circle cx="132" cy="285" r="1.97" fill="#fff" opacity="0.87"/>
    <circle cx="158" cy="351" r="2.53" fill="#fff" opacity="0.74"/>
    <circle cx="132" cy="143" r="3.26" fill="#fff" opacity="0.63"/>
    <circle cx="72" cy="457" r="3.02" fill="#fff" opacity="0.74"/>
    <circle cx="432" cy="197" r="2.74" fill="#fff" opacity="0.50"/>
    <circle cx="102" cy="298" r="4.13" fill="#fff" opacity="0.74"/>
  </g>

  <rect x="58" y="620" width="404" height="95" rx="24" fill="#fff8ef" opacity=".82"/>
  <text x="260" y="668" text-anchor="middle" font-family="'Cormorant Garamond', Georgia, serif" font-size="33" fill="#6d5585">King of Feathers</text>
  <text x="260" y="692" text-anchor="middle" font-family="'Nunito', sans-serif" font-size="14" fill="#8a74a0">feathers • king</text>
</svg>
