<svg xmlns="http://www.w3.org/2000/svg" viewBox="0 0 520 780" role="img" aria-labelledby="t d">
  <title id="t">Ace Of Crystals</title>
  <desc id="d">Whimsical pastel tarot artwork inspired by hand-drawn style, original composition.</desc>
  <defs>
    <linearGradient id="bg" x1="0" y1="0" x2="1" y2="1">
      <stop offset="0%" stop-color="#fffaf0"/>
      <stop offset="50%" stop-color="#d8f7ea"/>
      <stop offset="100%" stop-color="#d7d1ff"/>
    </linearGradient>
    <filter id="soft" x="-20%" y="-20%" width="140%" height="140%"><feGaussianBlur stdDeviation="2.8"/></filter>
  </defs>

  <rect width="520" height="780" fill="url(#bg)"/>
  <rect x="22" y="22" width="476" height="736" rx="34" fill="none" stroke="#fff9ee" stroke-width="6" opacity=".86"/>

  <path d="M52 83 C180 67,336 101,468 75" stroke="#fff" stroke-opacity=".5" stroke-width="3" fill="none"/>
  <path d="M52 164 C180 178,336 150,468 174" stroke="#fff" stroke-opacity=".42" stroke-width="2.7" fill="none"/>

  <circle cx="264" cy="370" r="132" fill="#ffffff" opacity=".22" filter="url(#soft)"/>
  
  <polygon points="260,232 330,300 302,414 218,414 190,300" fill="#bcefdc"/>
  <polygon points="260,258 306,306 286,390 234,390 214,306" fill="#f4fff8"/>
  <path d="M190 300 L260 232 L330 300" stroke="#ffffff" stroke-width="4" fill="none" opacity=".8"/>
  <circle cx="260" cy="347" r="9" fill="#d7d1ff"/>
        

  <g><circle cx="432" cy="397" r="2.24" fill="#fff" opacity=".74"/>
    <circle cx="153" cy="154" r="2.61" fill="#fff" opacity=".74"/>
    <circle cx="346" cy="409" r="2.32" fill="#fff" opacity=".74"/>
    <circle cx="326" cy="453" r="2.87" fill="#fff" opacity=".74"/>
    <circle cx="111" cy="119" r="2.12" fill="#fff" opacity=".74"/>
    <circle cx="270" cy="509" r="2.39" fill="#fff" opacity=".74"/>
    <circle cx="236" cy="357" r="3.19" fill="#fff" opacity=".74"/>
    <circle cx="261" cy="111" r="2.15" fill="#fff" opacity=".74"/>
    <circle cx="383" cy="401" r="2.59" fill="#fff" opacity=".74"/>
    <circle cx="221" cy="349" r="2.29" fill="#fff" opacity=".74"/></g>

  <rect x="80" y="618" width="360" height="86" rx="24" fill="#fff9ef" opacity=".8"/>
  <text x="260" y="653" text-anchor="middle" font-family="'Cormorant Garamond', Georgia, serif" font-size="22" fill="#6f5686">Ace Of Crystals</text>
  <text x="260" y="680" text-anchor="middle" font-family="'Nunito', sans-serif" font-size="16" fill="#8b74a2">Crystals</text>
</svg>
