<svg xmlns="http://www.w3.org/2000/svg" viewBox="0 0 520 780" role="img" aria-labelledby="t d">
  <title id="t">Five of Crystals</title>
  <desc id="d">Detailed whimsical original tarot artwork for Five of Crystals.</desc>
  <defs>
    <linearGradient id="bg" x1="0" y1="0" x2="1" y2="1">
      <stop offset="0%" stop-color="#fffaf0"/>
      <stop offset="42%" stop-color="#dff8ee"/>
      <stop offset="70%" stop-color="#bdeedc"/>
      <stop offset="100%" stop-color="#d8d1ff"/>
    </linearGradient>
    <radialGradient id="orb" cx="50%" cy="45%" r="60%">
      <stop offset="0%" stop-color="#ffffff" stop-opacity="0.94"/>
      <stop offset="100%" stop-color="#8ed8bf" stop-opacity="0.16"/>
    </radialGradient>
    <filter id="soft" x="-20%" y="-20%" width="140%" height="140%"><feGaussianBlur stdDeviation="2.5"/></filter>
  </defs>

  <rect width="520" height="780" fill="url(#bg)"/>
  <rect x="20" y="20" width="480" height="740" rx="34" fill="none" stroke="#fff9ef" stroke-width="6" opacity=".9"/>

  <path d="M45 72 C170 52,340 94,475 66" stroke="#fff" stroke-opacity=".50" stroke-width="3.2" fill="none"/>
  <path d="M45 146 C175 160,337 130,475 158" stroke="#fff" stroke-opacity=".42" stroke-width="2.6" fill="none"/>

  <circle cx="246" cy="276" r="96" fill="url(#orb)" filter="url(#soft)"/>

  <polygon points="180,250 196,282 191,344 169,344 164,282" fill="#dff9ef" stroke="#fff" stroke-width="2" opacity=".82"/>
    <polygon points="237,282 253,309 248,362 226,362 221,309" fill="#dff9ef" stroke="#fff" stroke-width="2" opacity=".82"/>
    <polygon points="202,271 218,293 212,337 192,337 186,293" fill="#dff9ef" stroke="#fff" stroke-width="2" opacity=".82"/>
    <polygon points="377,387 398,411 391,459 363,459 356,411" fill="#dff9ef" stroke="#fff" stroke-width="2" opacity=".82"/>
    <polygon points="203,298 219,327 213,384 193,384 187,327" fill="#dff9ef" stroke="#fff" stroke-width="2" opacity=".82"/>

  <path d="M72 560 C150 518,220 540,260 556 C305 575,370 578,448 538 L448 650 L72 650 Z" fill="#ffffff" fill-opacity=".20"/>
  <path d="M 143 470 C 202 434, 318 506, 377 470 C 318 434, 202 506, 143 470" stroke="#d8d1ff" stroke-opacity=".52" stroke-width="4" fill="none"/>
    <path d="M 129 488 C 195 459, 325 517, 391 488 C 325 459, 195 517, 129 488" stroke="#8ed8bf" stroke-opacity=".52" stroke-width="4" fill="none"/>
    <path d="M 164 506 C 212 477, 308 535, 356 506 C 308 477, 212 535, 164 506" stroke="#d8d1ff" stroke-opacity=".52" stroke-width="4" fill="none"/>

  <g>
    <circle cx="397" cy="245" r="3.12" fill="#fff" opacity="0.63"/>
    <circle cx="185" cy="452" r="2.37" fill="#fff" opacity="0.44"/>
    <circle cx="103" cy="272" r="4.38" fill="#fff" opacity="0.77"/>
    <circle cx="90" cy="388" r="1.88" fill="#fff" opacity="0.89"/>
    <circle cx="206" cy="290" r="3.70" fill="#fff" opacity="0.53"/>
    <circle cx="302" cy="406" r="3.50" fill="#fff" opacity="0.38"/>
    <circle cx="434" cy="477" r="2.51" fill="#fff" opacity="0.88"/>
    <circle cx="102" cy="317" r="1.65" fill="#fff" opacity="0.52"/>
    <circle cx="393" cy="94" r="3.36" fill="#fff" opacity="0.59"/>
    <circle cx="327" cy="388" r="2.92" fill="#fff" opacity="0.61"/>
    <circle cx="72" cy="173" r="1.99" fill="#fff" opacity="0.60"/>
    <circle cx="450" cy="461" r="1.50" fill="#fff" opacity="0.73"/>
    <circle cx="153" cy="508" r="2.62" fill="#fff" opacity="0.57"/>
    <circle cx="192" cy="138" r="3.02" fill="#fff" opacity="0.83"/>
    <circle cx="170" cy="362" r="4.03" fill="#fff" opacity="0.37"/>
    <circle cx="434" cy="362" r="3.46" fill="#fff" opacity="0.50"/>
    <circle cx="179" cy="278" r="3.35" fill="#fff" opacity="0.68"/>
    <circle cx="323" cy="177" r="2.74" fill="#fff" opacity="0.66"/>
    <circle cx="113" cy="541" r="3.51" fill="#fff" opacity="0.61"/>
    <circle cx="408" cy="321" r="4.19" fill="#fff" opacity="0.53"/>
    <circle cx="108" cy="342" r="2.72" fill="#fff" opacity="0.50"/>
    <circle cx="137" cy="524" r="1.74" fill="#fff" opacity="0.71"/>
    <circle cx="339" cy="543" r="3.35" fill="#fff" opacity="0.45"/>
    <circle cx="131" cy="149" r="2.87" fill="#fff" opacity="0.46"/>
    <circle cx="241" cy="340" r="3.97" fill="#fff" opacity="0.46"/>
    <circle cx="103" cy="400" r="4.62" fill="#fff" opacity="0.57"/>
  </g>

  <rect x="58" y="620" width="404" height="95" rx="24" fill="#fff8ef" opacity=".82"/>
  <text x="260" y="668" text-anchor="middle" font-family="'Cormorant Garamond', Georgia, serif" font-size="33" fill="#6d5585">Five of Crystals</text>
  <text x="260" y="692" text-anchor="middle" font-family="'Nunito', sans-serif" font-size="14" fill="#8a74a0">crystals • five</text>
</svg>
