<svg xmlns="http://www.w3.org/2000/svg" viewBox="0 0 520 780" role="img" aria-labelledby="t d">
  <title id="t">Nine Of Dewdrops</title>
  <desc id="d">Whimsical pastel tarot artwork inspired by hand-drawn style, original composition.</desc>
  <defs>
    <linearGradient id="bg" x1="0" y1="0" x2="1" y2="1">
      <stop offset="0%" stop-color="#fff9ef"/>
      <stop offset="50%" stop-color="#cdefff"/>
      <stop offset="100%" stop-color="#f6d7f0"/>
    </linearGradient>
    <filter id="soft" x="-20%" y="-20%" width="140%" height="140%"><feGaussianBlur stdDeviation="2.8"/></filter>
  </defs>

  <rect width="520" height="780" fill="url(#bg)"/>
  <rect x="22" y="22" width="476" height="736" rx="34" fill="none" stroke="#fff9ee" stroke-width="6" opacity=".86"/>

  <path d="M52 84 C180 68,336 102,468 76" stroke="#fff" stroke-opacity=".5" stroke-width="3" fill="none"/>
  <path d="M52 161 C180 175,336 147,468 171" stroke="#fff" stroke-opacity=".42" stroke-width="2.7" fill="none"/>

  <circle cx="264" cy="370" r="132" fill="#ffffff" opacity=".22" filter="url(#soft)"/>
  
  <path d="M260 228 C300 290,342 330,342 390 C342 455,305 504,260 504 C215 504,178 455,178 390 C178 330,220 290,260 228 Z" fill="#b8e8ff" opacity=".9"/>
  <path d="M260 258 C286 300,314 332,314 385 C314 428,290 462,260 462 C230 462,206 428,206 385 C206 332,234 300,260 258 Z" fill="#f7fdff" opacity=".9"/>
  <circle cx="238" cy="346" r="10" fill="#fff" opacity=".9"/>
        

  <g><circle cx="242" cy="482" r="3.45" fill="#fff" opacity=".74"/>
    <circle cx="170" cy="204" r="2.75" fill="#fff" opacity=".74"/>
    <circle cx="358" cy="260" r="2.29" fill="#fff" opacity=".74"/>
    <circle cx="353" cy="377" r="2.71" fill="#fff" opacity=".74"/>
    <circle cx="238" cy="199" r="3.31" fill="#fff" opacity=".74"/>
    <circle cx="239" cy="541" r="2.65" fill="#fff" opacity=".74"/>
    <circle cx="266" cy="276" r="3.05" fill="#fff" opacity=".74"/>
    <circle cx="154" cy="532" r="4.36" fill="#fff" opacity=".74"/>
    <circle cx="92" cy="267" r="2.06" fill="#fff" opacity=".74"/>
    <circle cx="232" cy="339" r="2.92" fill="#fff" opacity=".74"/></g>

  <rect x="80" y="618" width="360" height="86" rx="24" fill="#fff9ef" opacity=".8"/>
  <text x="260" y="653" text-anchor="middle" font-family="'Cormorant Garamond', Georgia, serif" font-size="22" fill="#6f5686">Nine Of Dewdrops</text>
  <text x="260" y="680" text-anchor="middle" font-family="'Nunito', sans-serif" font-size="16" fill="#8b74a2">Dewdrops</text>
</svg>
